<?xml version="1.0" encoding="UTF-8"?>
<svg version="1.1" xmlns="http://www.w3.org/2000/svg" width="512" height="512">
<path d="M0 0 C1.02351562 0.10908691 2.04703125 0.21817383 3.1015625 0.33056641 C17.46640161 2.13325921 30.02297427 7.09026536 39.3515625 18.54296875 C43.7773343 24.95466379 45.96508422 31.80169487 47.8125 39.3125 C50.576527 50.20276639 55.87461274 59.56907906 65.70703125 65.44140625 C78.61798973 72.18108898 89.18564592 73.08911362 103.125 69.1875 C116.54065565 65.75523052 127.35942353 66.02630345 139.875 72.75 C162.72919495 86.34116727 177.63470182 118.2186792 187.875 141.75 C188.19549316 142.471875 188.51598633 143.19375 188.84619141 143.9375 C194.3458806 156.5946377 196.63189338 170.28901282 192.375 183.75 C189.03895243 191.31484027 184.1503265 198.07698388 177.75 203.3125 C170.9198524 208.92154066 165.86690873 218.08415988 164.55737305 226.88452148 C164.40257107 229.09951523 164.35601534 231.27975642 164.375 233.5 C164.38072021 234.2849585 164.38644043 235.06991699 164.39233398 235.87866211 C164.72887267 246.93911373 169.37898518 255.73644295 176.875 263.75 C177.865 264.554375 178.855 265.35875 179.875 266.1875 C188.53064919 273.58086702 193.38750392 283.69865239 194.2890625 294.98828125 C194.78680518 305.3590415 193.07016328 314.20297359 188.875 323.75 C188.31111572 325.03632324 188.31111572 325.03632324 187.73583984 326.34863281 C179.68823251 344.39705906 170.20185738 361.27539154 157.875 376.75 C157.111875 377.72839844 156.34875 378.70679688 155.5625 379.71484375 C146.56818936 391.03369751 137.42293458 398.36193749 122.67578125 400.53125 C114.84382004 401.14295129 107.75995126 399.82809027 100.25 397.6875 C88.29120623 394.36966392 78.50742053 395.33584245 67.29296875 401.0703125 C55.88285649 408.18462441 50.10756514 418.37731875 46.9375 431.1875 C43.42873293 445.09625267 36.91436339 453.96340212 24.79296875 461.390625 C-2.65948765 474.17972116 -48.60154292 472.50170382 -77.125 463.9375 C-88.03761355 459.64348343 -96.70021333 452.24277875 -101.875 441.625 C-103.72971518 437.23160491 -104.92116982 432.81338108 -106.0625 428.1875 C-108.826527 417.29723361 -114.12461274 407.93092094 -123.95703125 402.05859375 C-136.7256611 395.39320836 -146.60312542 394.31622317 -160.453125 398.2409668 C-173.53374588 401.88123516 -185.72358462 401.27711691 -198 395.0625 C-220.94110522 381.27112233 -235.91362214 349.38299008 -246.125 325.75 C-246.45677246 325.00266602 -246.78854492 324.25533203 -247.13037109 323.48535156 C-252.6300912 310.86985287 -254.86810519 297.16738667 -250.625 283.75 C-247.28895243 276.18515973 -242.4003265 269.42301612 -236 264.1875 C-229.1698524 258.57845934 -224.11690873 249.41584012 -222.80737305 240.61547852 C-222.65257107 238.40048477 -222.60601534 236.22024358 -222.625 234 C-222.63072021 233.2150415 -222.63644043 232.43008301 -222.64233398 231.62133789 C-222.97887267 220.56088627 -227.62898518 211.76355705 -235.125 203.75 C-236.61 202.5434375 -236.61 202.5434375 -238.125 201.3125 C-245.68356535 194.85622543 -251.23038587 185.6025212 -252.36425781 175.64990234 C-253.23752362 164.18767881 -251.79291586 154.32742571 -247.125 143.75 C-246.75971191 142.90985352 -246.39442383 142.06970703 -246.01806641 141.20410156 C-237.17236034 121.15667305 -226.24254126 102.53122829 -212.125 85.75 C-211.42890625 84.87859375 -210.7328125 84.0071875 -210.015625 83.109375 C-203.10348067 74.75950465 -193.75275627 68.90073991 -182.86254883 67.44824219 C-180.56612582 67.31340817 -178.30010484 67.28369769 -176 67.3125 C-174.76938843 67.31733398 -174.76938843 67.31733398 -173.51391602 67.32226562 C-166.74070646 67.47463493 -160.86492364 68.91077153 -154.41015625 70.84375 C-144.39738764 73.60589306 -134.66793071 71.09570436 -125.54296875 66.4296875 C-114.13285649 59.31537559 -108.35756514 49.12268125 -105.1875 36.3125 C-101.67873293 22.40374733 -95.16436339 13.53659788 -83.04296875 6.109375 C-58.79792684 -5.18550396 -25.83216473 -2.81225165 0 0 Z M-122.56274414 146.75073242 C-137.74346872 162.45539867 -147.23053021 181.89227763 -153.125 202.75 C-153.63740234 204.53470703 -153.63740234 204.53470703 -154.16015625 206.35546875 C-158.76365209 225.98991381 -157.99326643 249.49128503 -152.125 268.75 C-151.76277344 270.00039063 -151.40054688 271.25078125 -151.02734375 272.5390625 C-148.20530247 281.01475259 -144.32159999 285.68533847 -136.6875 290.1875 C-128.2402022 292.04178488 -122.41583171 290.25915403 -115.125 285.75 C-111.85108771 283.12067549 -108.91817178 280.22292328 -105.9765625 277.23046875 C-105.15674896 276.41306717 -104.33693542 275.59566559 -103.49227905 274.75349426 C-101.77377202 273.03401364 -100.06140764 271.30837372 -98.35498047 269.5769043 C-95.75207407 266.93960147 -93.12591407 264.32723337 -90.49609375 261.71679688 C-88.82147883 260.03528489 -87.14825307 258.35238804 -85.4765625 256.66796875 C-84.69737457 255.89374069 -83.91818665 255.11951263 -83.11538696 254.32182312 C-77.04408735 248.11849128 -72.28391255 241.80801552 -72.125 232.75 C-73.34013992 226.19525487 -76.1765721 221.20237523 -81.125 216.75 C-86.13991005 213.47940649 -91.4055295 212.18744663 -97.3203125 213.08203125 C-103.96627782 214.87667345 -108.32705967 218.97474496 -113.125 223.75 C-112.57716814 202.58376904 -100.77105432 183.85150387 -85.9375 169.5625 C-69.10376548 154.77135251 -47.10202196 147.96125934 -24.88671875 148.45703125 C-16.1221611 149.1396292 -7.63161468 150.91815959 0.75 153.5625 C7.11301127 155.35597244 12.27559624 154.60254287 18.13671875 151.5859375 C23.4638178 148.06079617 26.24437434 143.90561185 27.875 137.75 C28.94147592 131.217835 27.60712763 126.16249174 23.875 120.75 C19.3153686 115.8580539 14.51605659 113.41325307 8.1875 111.5 C7.392229 111.24968018 6.59695801 110.99936035 5.77758789 110.74145508 C-0.47124833 108.82939854 -6.61194651 107.40130535 -13.125 106.75 C-14.37023437 106.61722656 -15.61546875 106.48445313 -16.8984375 106.34765625 C-57.4222696 102.66455148 -94.22428871 118.40513615 -122.56274414 146.75073242 Z M47.7265625 190.3046875 C46.90674896 191.12446075 46.08693542 191.94423401 45.24227905 192.78884888 C43.52384435 194.51261251 41.811479 196.24244628 40.10498047 197.97802734 C37.50045739 200.62453524 34.87511345 203.24894217 32.24609375 205.87109375 C30.57164667 207.55603052 28.89842647 209.24218762 27.2265625 210.9296875 C26.44737457 211.70907684 25.66818665 212.48846619 24.86538696 213.29147339 C19.32869231 218.94914852 14.42233253 224.35853959 13.78125 232.64453125 C14.07491058 239.23965836 16.80382653 244.56419671 21.27734375 249.3125 C25.71344988 253.30391089 30.95801012 254.89088071 36.875 254.75 C44.61246324 253.5797431 49.4715874 249.12786455 54.875 243.75 C54.32716814 264.91623096 42.52105432 283.64849613 27.6875 297.9375 C10.85376548 312.72864749 -11.14797804 319.53874066 -33.36328125 319.04296875 C-42.1278389 318.3603708 -50.61838532 316.58184041 -59 313.9375 C-65.36301127 312.14402756 -70.52559624 312.89745713 -76.38671875 315.9140625 C-81.7138178 319.43920383 -84.49437434 323.59438815 -86.125 329.75 C-87.18505155 336.24281571 -85.89867289 341.38501927 -82.125 346.75 C-73.98398853 357.14695441 -55.38208781 359.44884124 -43.15039062 361.00048828 C-10.50020017 364.60977804 23.5421211 354.89504657 49.375 334.625 C71.8295957 315.34478911 86.80776399 293.29610763 94.875 264.75 C95.21660156 263.56019531 95.55820312 262.37039063 95.91015625 261.14453125 C100.51365209 241.51008619 99.74326643 218.00871497 93.875 198.75 C93.51277344 197.49960938 93.15054688 196.24921875 92.77734375 194.9609375 C89.95530247 186.48524741 86.07159999 181.81466153 78.4375 177.3125 C65.28908006 174.42626148 56.59486661 181.24682652 47.7265625 190.3046875 Z " fill="#000000" transform="translate(285.125,22.25)"/>
</svg>
