<?xml version="1.0" encoding="UTF-8"?>
<svg width="24px" height="24px" viewBox="0 0 24 24" version="1.1" xmlns="http://www.w3.org/2000/svg">
    <g stroke="none" stroke-width="1" fill="none" fill-rule="evenodd">
        <path d="M19.589 6.686a4.793 4.793 0 0 1-3.77-4.245V2h-3.166v13.672c0 2.088-1.356 3.311-3.166 3.311-1.81 0-2.967-1.023-2.967-2.837 0-1.864 1.363-3.022 3.167-3.022.397 0 .917.107 1.274.263v-3.215c-.398-.054-.769-.08-1.274-.08C5.057 10.072 2 12.657 2 16.146c0 3.49 2.865 5.854 6.835 5.854 3.969 0 6.835-2.364 6.835-5.854V9.58c1.67 1.121 3.293 1.292 4.92 1.292V7.87c-.397.027-.917.054-1.001.054" fill="#FFFFFF" fill-rule="nonzero"/>
    </g>
</svg>
